<?xml version="1.0" encoding="UTF-8"?>
<svg width="280" height="40" viewBox="0 0 280 40" fill="none" xmlns="http://www.w3.org/2000/svg">
  <!-- PKO Letters (Red) -->
  <path d="M26.1464 8.53846H21.7773V31.4615H26.1464V8.53846Z" fill="#E31837"/>
  <path d="M39.6772 8.53846H35.3081V31.4615H39.6772V8.53846Z" fill="#E31837"/>
  <path d="M32.9117 8.53846H28.5426V31.4615H32.9117V8.53846Z" fill="#E31837"/>
  
  <!-- BP Letters (Blue) -->
  <path d="M65.4873 14.9231C65.4873 11.3846 62.6934 8.53846 59.2223 8.53846H46.4418V31.4615H50.811V24.3077H59.2223C62.6934 24.3077 65.4873 21.4615 65.4873 17.9231V14.9231ZM61.1182 17.9231C61.1182 19.0769 60.3476 20 59.2223 20H50.811V12.8462H59.2223C60.3476 12.8462 61.1182 13.7692 61.1182 14.9231V17.9231Z" fill="#0C1C5C"/>
  <path d="M91.2974 8.53846H86.9283L80.172 19.8462L73.4157 8.53846H69.0466L78.5339 24.3077V31.4615H81.8101V24.3077L91.2974 8.53846Z" fill="#0C1C5C"/>
  
  <!-- Bank Polski text (Blue) -->
  <path d="M120 12H126.5C129.5 12 131 13.5 131 16C131 18.5 129.5 20 126.5 20H123V25H120V12ZM126.5 17.5C127.5 17.5 128 17 128 16C128 15 127.5 14.5 126.5 14.5H123V17.5H126.5Z" fill="#0C1C5C"/>
  <path d="M132 12H142V14.5H135V17H141V19.5H135V22.5H142V25H132V12Z" fill="#0C1C5C"/>
  <path d="M144 12H147V22.5H153V25H144V12Z" fill="#0C1C5C"/>
  <path d="M155 12H158V25H155V12Z" fill="#0C1C5C"/>
  
  <path d="M170 12H176.5C179.5 12 181 13.5 181 16C181 17.5 180.5 18.5 179 19L181.5 25H178L176 19.5H173V25H170V12ZM176 17C177 17 177.5 16.5 177.5 16C177.5 15.5 177 15 176 15H173V17H176Z" fill="#0C1C5C"/>
  <path d="M183 12H193V14.5H186V17H192V19.5H186V22.5H193V25H183V12Z" fill="#0C1C5C"/>
  <path d="M195 12H198L203 20.5L208 12H211L204 25H202L195 12Z" fill="#0C1C5C"/>
  <path d="M213 12H223V14.5H216V17H222V19.5H216V22.5H223V25H213V12Z" fill="#0C1C5C"/>
  <path d="M225 12H228V22.5H234V25H225V12Z" fill="#0C1C5C"/>
  <path d="M236 12H246V14.5H239V17H245V19.5H239V22.5H246V25H236V12Z" fill="#0C1C5C"/>
  <path d="M248 12H251L256 20.5L261 12H264L257 25H255L248 12Z" fill="#0C1C5C"/>
</svg>
